<svg xmlns="http://www.w3.org/2000/svg" viewBox="0 0 24 24" aria-hidden="true"><path fill="#25D366" d="M20.5 3.5A11.86 11.86 0 0 0 12 0C5.4 0 .1 5.2.1 11.7c0 2.1.6 4.2 1.7 6L0 24l6.5-1.7a12.1 12.1 0 0 0 5.5 1.3h.1c6.6 0 11.9-5.2 11.9-11.7 0-3.1-1.3-6-3.5-8.4ZM12 21.2c-1.7 0-3.4-.5-4.8-1.3l-.3-.2-3.9 1 1-3.8-.2-.3A9.6 9.6 0 0 1 2.4 11.7C2.4 6.5 6.7 2.3 12 2.3c2.5 0 4.8 1 6.5 2.7a9.3 9.3 0 0 1 2.7 6.6c0 5.1-4.3 9.3-9.6 9.3Zm5.3-7.1c-.3-.1-1.7-.9-2-.9-.2-.1-.4-.1-.6.1l-.3.3c-.2.2-.7.8-.9.9-.2.1-.4.2-.7.1-.3-.1-1.4-.5-2.6-1.7-.9-.9-1.5-2-1.6-2.3-.2-.3 0-.5.1-.7l.3-.4.1-.2c.1-.2.1-.3.2-.5 0-.2 0-.4-.1-.5 0-.1-.6-1.5-.8-2-.2-.5-.4-.4-.6-.4h-.5c-.2 0-.5.1-.7.3-.7.7-1 1.6-1 2.4 0 .3.1.6.2.9a11 11 0 0 0 2.1 3.3 11.9 11.9 0 0 0 3.7 2.8c1.5.6 2.1.7 2.9.6.5-.1 1.7-.7 2-1.3.3-.6.3-1.1.2-1.3 0-.1-.2-.1-.4-.2Z"/></svg>
